<svg width="56" height="56" viewBox="0 0 56 56" fill="none" xmlns="http://www.w3.org/2000/svg">
<g clip-path="url(#clip0_381_756)">
<path d="M10.0302 51.975C9.75719 53.529 11.2902 54.7435 12.6412 54.0505L28.0062 46.1545L43.3677 54.0505C44.7187 54.7435 46.2517 53.529 45.9787 51.9785L43.0737 35.4235L55.4007 23.6775C56.5557 22.5785 55.9607 20.5695 54.4137 20.3525L37.2707 17.9165L29.6267 2.77197C29.4811 2.46499 29.2513 2.20562 28.9642 2.024C28.677 1.84238 28.3442 1.74597 28.0044 1.74597C27.6647 1.74597 27.3319 1.84238 27.0447 2.024C26.7575 2.20562 26.5278 2.46499 26.3822 2.77197L18.7382 17.92L1.59519 20.356C0.0516932 20.573 -0.546807 22.582 0.604693 23.681L12.9352 35.427L10.0302 51.982V51.975ZM27.1977 42.2905L14.2967 48.9195L16.7257 35.07C16.7826 34.7512 16.7603 34.4233 16.6609 34.1151C16.5614 33.8069 16.3877 33.5279 16.1552 33.3025L5.98419 23.6075L20.1662 21.5915C20.4599 21.5471 20.7384 21.4323 20.978 21.2567C21.2175 21.0812 21.411 20.8501 21.5417 20.5835L27.9992 7.78047L34.4637 20.5835C34.5944 20.8501 34.7879 21.0812 35.0274 21.2567C35.267 21.4323 35.5455 21.5471 35.8392 21.5915L50.0212 23.604L39.8502 33.299C39.6171 33.5247 39.4431 33.8043 39.3436 34.1132C39.2441 34.422 39.2222 34.7506 39.2797 35.07L41.7087 48.9195L28.8077 42.2905C28.5582 42.1619 28.2816 42.0947 28.0009 42.0947C27.7203 42.0947 27.4437 42.1619 27.1942 42.2905H27.1977Z" fill="#25DAD2"/>
</g>
<defs>
<clipPath id="clip0_381_756">
<rect width="56" height="56" fill="white"/>
</clipPath>
</defs>
</svg>
