<svg width="52" height="52" viewBox="0 0 52 52" fill="none" xmlns="http://www.w3.org/2000/svg">
<path d="M46.7992 26C46.7992 14.508 37.4912 5.20001 25.9992 5.20001C14.5072 5.20001 5.19922 14.508 5.19922 26C5.19922 37.492 14.5072 46.8 25.9992 46.8C37.4912 46.8 46.7992 37.492 46.7992 26ZM18.7972 9.28201L22.6712 18.98C21.0592 19.734 19.7332 21.06 18.9792 22.672L9.28122 18.798C11.1291 14.5323 14.5315 11.1299 18.7972 9.28201ZM42.7172 18.798L33.0192 22.672C32.2652 21.06 30.9392 19.734 29.3272 18.98L33.2012 9.28201C37.4652 11.128 40.8712 14.534 42.7172 18.798ZM25.9992 31.2C23.1392 31.2 20.7992 28.86 20.7992 26C20.7992 23.14 23.1392 20.8 25.9992 20.8C28.8592 20.8 31.1992 23.14 31.1992 26C31.1992 28.86 28.8592 31.2 25.9992 31.2ZM9.28122 33.202L18.9792 29.328C19.7332 30.94 21.0592 32.266 22.6712 33.02L18.7972 42.718C14.5315 40.8701 11.1291 37.4678 9.28122 33.202ZM33.2012 42.718L29.3272 33.02C30.9392 32.266 32.2652 30.94 33.0192 29.328L42.7172 33.202C40.8693 37.4678 37.467 40.8701 33.2012 42.718Z" fill="#25DAD2"/>
</svg>
