<svg width="50" height="50" viewBox="0 0 50 50" fill="none" xmlns="http://www.w3.org/2000/svg">
<path d="M24.9994 4.16669C13.5118 4.16669 4.16602 13.5125 4.16602 25V33.6313C4.16602 35.7646 6.03477 37.5 8.33268 37.5H10.416C10.9686 37.5 11.4985 37.2805 11.8892 36.8898C12.2799 36.4991 12.4993 35.9692 12.4993 35.4167V24.7021C12.4993 24.1496 12.2799 23.6197 11.8892 23.229C11.4985 22.8383 10.9686 22.6188 10.416 22.6188H8.52435C9.68268 14.5563 16.6202 8.33335 24.9994 8.33335C33.3785 8.33335 40.316 14.5563 41.4744 22.6188H39.5827C39.0302 22.6188 38.5002 22.8383 38.1095 23.229C37.7188 23.6197 37.4994 24.1496 37.4994 24.7021V37.5C37.4994 39.7979 35.6306 41.6667 33.3327 41.6667H29.166V39.5834H20.8327V45.8334H33.3327C37.9285 45.8334 41.666 42.0959 41.666 37.5C43.9639 37.5 45.8327 35.7646 45.8327 33.6313V25C45.8327 13.5125 36.4869 4.16669 24.9994 4.16669Z" fill="#25DAD2"/>
</svg>
